<?xml version="1.0" encoding="UTF-8"?>
<svg id="Lager_1" xmlns="http://www.w3.org/2000/svg" viewBox="0 0 158.86 72.19">
  <defs>
    <style>
      .cls-1 {
        fill: #1d1d1b;
      }
    </style>
  </defs>
  <path class="cls-1" d="M19.47,10.27c-.03-5.56-3.52-9.5-8.62-9.5C1.42.77.4,12.55,11.79,14.69c16.3,3.06,14.26,19.38.2,19.38-5.89,0-9.77-2.91-11.99-6.11l1.32-8.14c-.27,7.85,4.19,13.49,10.68,13.49,11.34,0,13.15-13.79-.62-16.37C-2.58,14.32-1.11,0,10.85,0c3.35,0,7.61,1.52,9.58,3.99l-.96,6.28Z"/>
  <path class="cls-1" d="M38.4,33.84h-9.82c2.64-.28,3.77-2.35,3.77-4.85V1h-6.64c-1.99,0-5.22,5.33-6.26,8.88L20.84.23h25.28l1.03,7.07c-1.03-3.55-3.9-6.31-5.89-6.31h-6.64v27.99c0,2.5,1.13,4.57,3.77,4.85Z"/>
  <path class="cls-1" d="M75.87,28.99V5.08c0-2.5-1.13-4.57-3.77-4.85,4.07,0,8.09-.02,12.16-.02,18.14,0,17.6,33.62.04,33.62h-12.2c2.64-.28,3.77-2.35,3.77-4.85ZM78.16,1v32.08h5.22c15.64.05,16.35-32.02-.02-32.08h-5.21Z"/>
  <path class="cls-1" d="M104.33,33.84h-9.82c2.63-.28,3.77-2.35,3.77-4.85V5.08c0-2.5-1.13-4.57-3.77-4.85h9.82c-2.64.27-3.77,2.35-3.77,4.85v23.9c0,2.5,1.13,4.57,3.77,4.85Z"/>
  <path class="cls-1" d="M117.64,34.07C95.78,34.07,95.78,0,117.64,0s21.86,34.07,0,34.07ZM117.64,33.29c18.82.13,18.81-32.4,0-32.52-18.79,0-18.8,32.52,0,32.52Z"/>
  <path class="cls-1" d="M34.97,64.43c0,4.35-2.51,7.98-7.49,7.74-2.19-.1-3.91-1.11-5.19-2.73,5.07,3.69,10.14,1.98,10.14-5.01v-21.21c0-2.5-1.26-4.57-4.18-4.85h10.89c-2.92.27-4.18,2.35-4.18,4.85v21.21Z"/>
  <path class="cls-1" d="M61.1,43.23c-.16-.62-.22-1.23-2.85-1.51,1.12-.26,5.91-1.79,10.24-4.24-.19.28-.98,2.42-4.94,4.32-.23.11-.39.51-.23,1.17l6.54,23.66,5.94-21.4-.57-2.01c-.76-2.62-2.21-4.58-4.84-4.85h9.99c-2.55.27-3.49,2.33-2.92,4.6l6.54,23.66,6.57-23.69c.58-2.26,0-4.31-2.54-4.57h8.07c-2.63.27-4.08,2.23-4.84,4.85-2.67,9.58-5.36,19.16-8.01,28.75-2.35-8.46-4.71-16.92-7.07-25.37-2.35,8.46-4.75,16.91-7.07,25.37-2.67-9.58-5.34-19.16-8.01-28.75Z"/>
  <path class="cls-1" d="M94.12,67.13v-23.9c0-2.5-1.13-4.57-3.77-4.85h17.3c3.09,1.09,2.5,4.1,2.5,4.1-1.03-3.55-5.37-3.33-7.35-3.33h-6.39v13.04h.99c2.51,0,4.57-1.13,4.85-3.77v8.3c-.28-2.64-2.35-3.77-4.85-3.77h-.99v18.27h6.39c1.98,0,7.21-.5,7.4-4.72,0,0,1.55,4.17-2.55,5.48,0,0-11.53,0-17.3,0,2.64-.28,3.77-2.35,3.77-4.85Z"/>
  <path class="cls-1" d="M112.48,43.22v27.99h6.83c1.99,0,4.27-1.7,4.74-6.31l.11,7.07h-17.74c2.64-.28,3.77-2.35,3.77-4.85v-23.9c0-2.5-1.13-4.57-3.77-4.85h9.82c-2.63.27-3.77,2.35-3.77,4.85Z"/>
  <path class="cls-1" d="M132.72,71.97h-9.82c2.63-.28,3.77-2.35,3.77-4.85v-23.9c0-2.5-1.13-4.57-3.77-4.85h9.82c-2.64.27-3.77,2.35-3.77,4.85v23.9c0,2.5,1.13,4.57,3.77,4.85Z"/>
  <path class="cls-1" d="M142.03,38.37l10.96,29.2c.99,2.39,2.77,4.14,5.87,4.4h-12.45c3.29-.28,4.42-2.46,3.57-4.82l-1.19-3.15h-15.43l-1.18,3.15c-.85,2.36-.19,4.54,3.09,4.82h-10.07c3.08-.26,4.85-1.99,5.85-4.36l10.95-29.19.03-.06ZM148.34,63.24l-7.26-19.75-7.23,19.75h14.49Z"/>
  <path class="cls-1" d="M41.41,58.48c0,15.77,19.18,15.5,19.18,0v-13.63c-.04-1.29.25-2.43-1.26-2.87-3.33-.97-3.38-1.15-3.89-1.39,2.51,0,5.73.36,8.25.36-2.39.27-2.4-.25-2.4,2.23v15.3c.14,18.77-21.96,17.78-21.96,0v-15.3c0-2.48-1.03-4.53-3.42-4.81h8.93c-2.4.27-3.42,2.32-3.42,4.81v15.3Z"/>
  <path class="cls-1" d="M47.4,25.42c0,19.77,23.92,19.43,23.92,0V6.24c0-3.11-1.28-5.68-4.27-6.03h9.4c-2.99.34-4.27,2.91-4.27,6.03v19.17c.18,23.53-27.39,22.29-27.39,0V6.24c0-3.11-1.28-5.68-4.27-6.03h11.14c-2.99.34-4.27,2.91-4.27,6.03v19.17Z"/>
</svg>